<svg width="263" height="270" viewBox="0 0 263 270" fill="none" xmlns="http://www.w3.org/2000/svg">
<path fill-rule="evenodd" clip-rule="evenodd" d="M250 145C250 214.036 194.036 270 125 270C96.6558 270 70.5151 260.566 49.5464 244.667L68.6005 225.613C84.4816 236.578 103.741 243 124.5 243C178.9 243 223 198.9 223 144.5C223 123.741 216.578 104.482 205.613 88.6005L224.667 69.5464C240.566 90.5151 250 116.656 250 145ZM185.013 66.774L203.814 47.9726C182.31 30.4834 154.879 20 125 20C55.9644 20 0 75.9644 0 145C0 174.879 10.4834 202.31 27.9726 223.814L46.774 205.013C33.7556 188.315 26 167.313 26 144.5C26 90.1 70.1 46 124.5 46C147.313 46 168.315 53.7556 185.013 66.774Z" fill="url(#paint0_linear)"/>
<path fill-rule="evenodd" clip-rule="evenodd" d="M84.9445 205.269L185.269 104.945C192.688 116.32 197 129.906 197 144.5C197 184.541 164.541 217 124.5 217C109.906 217 96.3195 212.688 84.9445 205.269Z" fill="#444678"/>
<circle cx="186.5" cy="13.5" r="6.5" fill="#444678"/>
<circle cx="6.5" cy="73.5" r="6.5" fill="#444678"/>
<circle cx="256.5" cy="180.5" r="6.5" fill="#444678"/>
<circle cx="54.5" cy="263.5" r="6.5" fill="#444678"/>
<circle cx="118.5" cy="6.5" r="6.5" fill="#444678"/>
<defs>
<linearGradient id="paint0_linear" x1="26" y1="-0.999994" x2="238" y2="319" gradientUnits="userSpaceOnUse">
<stop stop-color="#6E95F1"/>
<stop offset="1" stop-color="#582896"/>
</linearGradient>
</defs>
</svg>
