<svg width="354" height="282" viewBox="0 0 354 282" fill="none" xmlns="http://www.w3.org/2000/svg">
<circle cx="129" cy="9" r="9" fill="#EEEEEE"/>
<circle cx="129" cy="81" r="9" fill="#EEEEEE"/>
<circle cx="129" cy="57" r="9" fill="#EEEEEE"/>
<circle cx="129" cy="33" r="9" fill="#EEEEEE"/>
<circle cx="129" cy="105" r="9" fill="#EEEEEE"/>
<circle cx="129" cy="177" r="9" fill="#EEEEEE"/>
<circle cx="129" cy="153" r="9" fill="#EEEEEE"/>
<circle cx="129" cy="129" r="9" fill="#EEEEEE"/>
<circle cx="129" cy="201" r="9" fill="#EEEEEE"/>
<circle cx="129" cy="273" r="9" fill="#EEEEEE"/>
<circle cx="129" cy="249" r="9" fill="#EEEEEE"/>
<circle cx="129" cy="225" r="9" fill="#EEEEEE"/>
<circle cx="153" cy="9" r="9" fill="#EEEEEE"/>
<circle cx="153" cy="81" r="9" fill="#EEEEEE"/>
<circle cx="153" cy="57" r="9" fill="#EEEEEE"/>
<circle cx="153" cy="33" r="9" fill="#EEEEEE"/>
<circle cx="153" cy="105" r="9" fill="#EEEEEE"/>
<circle cx="153" cy="177" r="9" fill="#EEEEEE"/>
<circle cx="153" cy="153" r="9" fill="#EEEEEE"/>
<circle cx="153" cy="129" r="9" fill="#EEEEEE"/>
<circle cx="153" cy="201" r="9" fill="#EEEEEE"/>
<circle cx="153" cy="273" r="9" fill="#EEEEEE"/>
<circle cx="153" cy="249" r="9" fill="#EEEEEE"/>
<circle cx="153" cy="225" r="9" fill="#EEEEEE"/>
<circle cx="9" cy="9" r="9" fill="#EEEEEE"/>
<circle cx="9" cy="81" r="9" fill="#EEEEEE"/>
<circle cx="9" cy="57" r="9" fill="#EEEEEE"/>
<circle cx="9" cy="33" r="9" fill="#EEEEEE"/>
<circle cx="9" cy="105" r="9" fill="#EEEEEE"/>
<circle cx="9" cy="177" r="9" fill="#EEEEEE"/>
<circle cx="9" cy="153" r="9" fill="#EEEEEE"/>
<circle cx="9" cy="129" r="9" fill="#EEEEEE"/>
<circle cx="9" cy="201" r="9" fill="#EEEEEE"/>
<circle cx="9" cy="273" r="9" fill="#EEEEEE"/>
<circle cx="9" cy="249" r="9" fill="#EEEEEE"/>
<circle cx="9" cy="225" r="9" fill="#EEEEEE"/>
<circle cx="33" cy="9" r="9" fill="#EEEEEE"/>
<circle cx="33" cy="81" r="9" fill="#EEEEEE"/>
<circle cx="33" cy="57" r="9" fill="#EEEEEE"/>
<circle cx="33" cy="33" r="9" fill="#EEEEEE"/>
<circle cx="33" cy="105" r="9" fill="#EEEEEE"/>
<circle cx="33" cy="177" r="9" fill="#EEEEEE"/>
<circle cx="33" cy="153" r="9" fill="#EEEEEE"/>
<circle cx="33" cy="129" r="9" fill="#EEEEEE"/>
<circle cx="33" cy="201" r="9" fill="#EEEEEE"/>
<circle cx="33" cy="273" r="9" fill="#EEEEEE"/>
<circle cx="33" cy="249" r="9" fill="#EEEEEE"/>
<circle cx="33" cy="225" r="9" fill="#EEEEEE"/>
<circle cx="57" cy="9" r="9" fill="#EEEEEE"/>
<circle cx="57" cy="81" r="9" fill="#EEEEEE"/>
<circle cx="57" cy="57" r="9" fill="#EEEEEE"/>
<circle cx="57" cy="33" r="9" fill="#EEEEEE"/>
<circle cx="57" cy="105" r="9" fill="#EEEEEE"/>
<circle cx="57" cy="177" r="9" fill="#EEEEEE"/>
<circle cx="57" cy="153" r="9" fill="#EEEEEE"/>
<circle cx="57" cy="129" r="9" fill="#EEEEEE"/>
<circle cx="57" cy="201" r="9" fill="#EEEEEE"/>
<circle cx="57" cy="273" r="9" fill="#EEEEEE"/>
<circle cx="57" cy="249" r="9" fill="#EEEEEE"/>
<circle cx="57" cy="225" r="9" fill="#EEEEEE"/>
<circle cx="81" cy="9" r="9" fill="#EEEEEE"/>
<circle cx="81" cy="81" r="9" fill="#EEEEEE"/>
<circle cx="81" cy="57" r="9" fill="#EEEEEE"/>
<circle cx="81" cy="33" r="9" fill="#EEEEEE"/>
<circle cx="81" cy="105" r="9" fill="#EEEEEE"/>
<circle cx="81" cy="177" r="9" fill="#EEEEEE"/>
<circle cx="81" cy="153" r="9" fill="#EEEEEE"/>
<circle cx="81" cy="129" r="9" fill="#EEEEEE"/>
<circle cx="81" cy="201" r="9" fill="#EEEEEE"/>
<circle cx="81" cy="273" r="9" fill="#EEEEEE"/>
<circle cx="81" cy="249" r="9" fill="#EEEEEE"/>
<circle cx="81" cy="225" r="9" fill="#EEEEEE"/>
<circle cx="105" cy="9" r="9" fill="#EEEEEE"/>
<circle cx="105" cy="81" r="9" fill="#EEEEEE"/>
<circle cx="105" cy="57" r="9" fill="#EEEEEE"/>
<circle cx="105" cy="33" r="9" fill="#EEEEEE"/>
<circle cx="105" cy="105" r="9" fill="#EEEEEE"/>
<circle cx="105" cy="177" r="9" fill="#EEEEEE"/>
<circle cx="105" cy="153" r="9" fill="#EEEEEE"/>
<circle cx="105" cy="129" r="9" fill="#EEEEEE"/>
<circle cx="105" cy="201" r="9" fill="#EEEEEE"/>
<circle cx="105" cy="273" r="9" fill="#EEEEEE"/>
<circle cx="105" cy="249" r="9" fill="#EEEEEE"/>
<circle cx="105" cy="225" r="9" fill="#EEEEEE"/>
<circle cx="345" cy="9" r="9" fill="#EEEEEE"/>
<circle cx="345" cy="81" r="9" fill="#EEEEEE"/>
<circle cx="345" cy="57" r="9" fill="#EEEEEE"/>
<circle cx="345" cy="33" r="9" fill="#EEEEEE"/>
<circle cx="345" cy="105" r="9" fill="#EEEEEE"/>
<circle cx="345" cy="177" r="9" fill="#EEEEEE"/>
<circle cx="345" cy="153" r="9" fill="#EEEEEE"/>
<circle cx="345" cy="129" r="9" fill="#EEEEEE"/>
<circle cx="345" cy="201" r="9" fill="#EEEEEE"/>
<circle cx="345" cy="273" r="9" fill="#EEEEEE"/>
<circle cx="345" cy="249" r="9" fill="#EEEEEE"/>
<circle cx="345" cy="225" r="9" fill="#EEEEEE"/>
<circle cx="321" cy="9" r="9" fill="#EEEEEE"/>
<circle cx="321" cy="81" r="9" fill="#EEEEEE"/>
<circle cx="321" cy="57" r="9" fill="#EEEEEE"/>
<circle cx="321" cy="33" r="9" fill="#EEEEEE"/>
<circle cx="321" cy="105" r="9" fill="#EEEEEE"/>
<circle cx="321" cy="177" r="9" fill="#EEEEEE"/>
<circle cx="321" cy="153" r="9" fill="#EEEEEE"/>
<circle cx="321" cy="129" r="9" fill="#EEEEEE"/>
<circle cx="321" cy="201" r="9" fill="#EEEEEE"/>
<circle cx="321" cy="273" r="9" fill="#EEEEEE"/>
<circle cx="321" cy="249" r="9" fill="#EEEEEE"/>
<circle cx="321" cy="225" r="9" fill="#EEEEEE"/>
<circle cx="297" cy="9" r="9" fill="#EEEEEE"/>
<circle cx="297" cy="81" r="9" fill="#EEEEEE"/>
<circle cx="297" cy="57" r="9" fill="#EEEEEE"/>
<circle cx="297" cy="33" r="9" fill="#EEEEEE"/>
<circle cx="297" cy="105" r="9" fill="#EEEEEE"/>
<circle cx="297" cy="177" r="9" fill="#EEEEEE"/>
<circle cx="297" cy="153" r="9" fill="#EEEEEE"/>
<circle cx="297" cy="129" r="9" fill="#EEEEEE"/>
<circle cx="297" cy="201" r="9" fill="#EEEEEE"/>
<circle cx="297" cy="273" r="9" fill="#EEEEEE"/>
<circle cx="297" cy="249" r="9" fill="#EEEEEE"/>
<circle cx="297" cy="225" r="9" fill="#EEEEEE"/>
<circle cx="273" cy="9" r="9" fill="#EEEEEE"/>
<circle cx="273" cy="81" r="9" fill="#EEEEEE"/>
<circle cx="273" cy="57" r="9" fill="#EEEEEE"/>
<circle cx="273" cy="33" r="9" fill="#EEEEEE"/>
<circle cx="273" cy="105" r="9" fill="#EEEEEE"/>
<circle cx="273" cy="177" r="9" fill="#EEEEEE"/>
<circle cx="273" cy="153" r="9" fill="#EEEEEE"/>
<circle cx="273" cy="129" r="9" fill="#EEEEEE"/>
<circle cx="273" cy="201" r="9" fill="#EEEEEE"/>
<circle cx="273" cy="273" r="9" fill="#EEEEEE"/>
<circle cx="273" cy="249" r="9" fill="#EEEEEE"/>
<circle cx="273" cy="225" r="9" fill="#EEEEEE"/>
<circle cx="249" cy="9" r="9" fill="#EEEEEE"/>
<circle cx="249" cy="81" r="9" fill="#EEEEEE"/>
<circle cx="249" cy="57" r="9" fill="#EEEEEE"/>
<circle cx="249" cy="33" r="9" fill="#EEEEEE"/>
<circle cx="249" cy="105" r="9" fill="#EEEEEE"/>
<circle cx="249" cy="177" r="9" fill="#EEEEEE"/>
<circle cx="249" cy="153" r="9" fill="#EEEEEE"/>
<circle cx="249" cy="129" r="9" fill="#EEEEEE"/>
<circle cx="249" cy="201" r="9" fill="#EEEEEE"/>
<circle cx="249" cy="273" r="9" fill="#EEEEEE"/>
<circle cx="249" cy="249" r="9" fill="#EEEEEE"/>
<circle cx="249" cy="225" r="9" fill="#EEEEEE"/>
<circle cx="225" cy="9" r="9" fill="#EEEEEE"/>
<circle cx="225" cy="81" r="9" fill="#EEEEEE"/>
<circle cx="225" cy="57" r="9" fill="#EEEEEE"/>
<circle cx="225" cy="33" r="9" fill="#EEEEEE"/>
<circle cx="225" cy="105" r="9" fill="#EEEEEE"/>
<circle cx="225" cy="177" r="9" fill="#EEEEEE"/>
<circle cx="225" cy="153" r="9" fill="#EEEEEE"/>
<circle cx="225" cy="129" r="9" fill="#EEEEEE"/>
<circle cx="225" cy="201" r="9" fill="#EEEEEE"/>
<circle cx="225" cy="273" r="9" fill="#EEEEEE"/>
<circle cx="225" cy="249" r="9" fill="#EEEEEE"/>
<circle cx="225" cy="225" r="9" fill="#EEEEEE"/>
<circle cx="201" cy="9" r="9" fill="#EEEEEE"/>
<circle cx="201" cy="81" r="9" fill="#EEEEEE"/>
<circle cx="201" cy="57" r="9" fill="#EEEEEE"/>
<circle cx="201" cy="33" r="9" fill="#EEEEEE"/>
<circle cx="201" cy="105" r="9" fill="#EEEEEE"/>
<circle cx="201" cy="177" r="9" fill="#EEEEEE"/>
<circle cx="201" cy="153" r="9" fill="#EEEEEE"/>
<circle cx="201" cy="129" r="9" fill="#EEEEEE"/>
<circle cx="201" cy="201" r="9" fill="#EEEEEE"/>
<circle cx="201" cy="273" r="9" fill="#EEEEEE"/>
<circle cx="201" cy="249" r="9" fill="#EEEEEE"/>
<circle cx="201" cy="225" r="9" fill="#EEEEEE"/>
<circle cx="177" cy="9" r="9" fill="#EEEEEE"/>
<circle cx="177" cy="81" r="9" fill="#EEEEEE"/>
<circle cx="177" cy="57" r="9" fill="#EEEEEE"/>
<circle cx="177" cy="33" r="9" fill="#EEEEEE"/>
<circle cx="177" cy="105" r="9" fill="#EEEEEE"/>
<circle cx="177" cy="177" r="9" fill="#EEEEEE"/>
<circle cx="177" cy="153" r="9" fill="#EEEEEE"/>
<circle cx="177" cy="129" r="9" fill="#EEEEEE"/>
<circle cx="177" cy="201" r="9" fill="#EEEEEE"/>
<circle cx="177" cy="273" r="9" fill="#EEEEEE"/>
<circle cx="177" cy="249" r="9" fill="#EEEEEE"/>
<circle cx="177" cy="225" r="9" fill="#EEEEEE"/>
</svg>