<svg id="Layer_1" data-name="Layer 1" xmlns="http://www.w3.org/2000/svg" viewBox="0 0 472.85 544.4"><defs><style>.cls-1,.cls-2,.cls-3,.cls-4,.cls-5,.cls-6{fill:none;stroke-miterlimit:10;stroke-width:4px;}.cls-1{stroke:#b3aaff;}.cls-2{stroke:#5571ff;}.cls-3{stroke:#e6e6e6;}.cls-4{stroke:#ffd58a;}.cls-5{stroke:#ffce74;}.cls-6{stroke:#ffaaba;}</style></defs><path class="cls-1" d="M1044.05,183" transform="translate(-597.54 -118.83)"/><path class="cls-1" d="M1020.36,266.65" transform="translate(-597.54 -118.83)"/><polygon class="cls-1" points="468.74 467.98 453.41 461.43 440.07 471.43 442.06 487.98 457.39 494.53 470.73 484.53 468.74 467.98"/><polygon class="cls-1" points="172.4 313.27 159.78 315.14 151.85 305.15 156.54 293.29 169.16 291.42 177.09 301.41 172.4 313.27"/><polygon class="cls-2" points="259.35 207.29 232.65 202.45 250.19 181.75 259.35 207.29"/><path class="cls-3" d="M925.79,486.76h0a19,19,0,0,1-13.61-13.2h0a19,19,0,0,1,4.63-18.39h0A19,19,0,0,1,935.05,450h0a19,19,0,0,1,13.61,13.2h0A19,19,0,0,1,944,481.58h0A19,19,0,0,1,925.79,486.76Z" transform="translate(-597.54 -118.83)"/><rect class="cls-3" x="973.38" y="202.64" width="19.95" height="19.95" transform="matrix(0.5, -0.87, 0.87, 0.5, -289.99, 839.08)"/><polygon class="cls-4" points="280.66 437.12 297.89 445.37 282.13 456.18 280.66 437.12"/><polygon class="cls-5" points="13.83 103.65 3.46 121.61 24.19 121.61 13.83 103.65"/><rect class="cls-1" x="722.29" y="637.78" width="18.74" height="18.74" transform="translate(-840.84 588.08) rotate(-45)"/><circle class="cls-6" cx="165.96" cy="201.67" r="7.5"/><circle class="cls-2" cx="104.46" cy="508.17" r="8"/><rect class="cls-1" x="836.67" y="122.44" width="12.9" height="12.9" transform="matrix(0.98, -0.21, 0.21, 0.98, -605.61, 64.16)"/></svg>