<svg width="250" height="250" viewBox="0 0 250 250" fill="none" xmlns="http://www.w3.org/2000/svg">
<path fill-rule="evenodd" clip-rule="evenodd" d="M250 125C250 194.036 194.036 250 125 250C96.6558 250 70.5151 240.566 49.5464 224.667L68.6005 205.613C84.4816 216.578 103.741 223 124.5 223C178.9 223 223 178.9 223 124.5C223 103.741 216.578 84.4816 205.613 68.6005L224.667 49.5464C240.566 70.5151 250 96.6558 250 125ZM185.013 46.774L203.814 27.9726C182.31 10.4834 154.879 0 125 0C55.9644 0 0 55.9644 0 125C0 154.879 10.4834 182.31 27.9726 203.814L46.774 185.013C33.7556 168.315 26 147.313 26 124.5C26 70.1 70.1 26 124.5 26C147.313 26 168.315 33.7556 185.013 46.774Z" fill="black"/>
<path fill-rule="evenodd" clip-rule="evenodd" d="M84.9445 185.269L185.269 84.9445C192.688 96.3196 197 109.906 197 124.5C197 164.541 164.541 197 124.5 197C109.906 197 96.3196 192.688 84.9445 185.269Z" fill="black"/>
<circle cx="214" cy="15" r="4" fill="black"/>
<circle cx="14" cy="43" r="5" fill="black"/>
<circle cx="181" cy="244" r="4" fill="black"/>
<circle cx="237" cy="206" r="5" fill="black"/>
<circle cx="27" cy="10" r="5" fill="black"/>
</svg>
