<svg width="101" height="130" viewBox="0 0 101 130" fill="none" xmlns="http://www.w3.org/2000/svg">
<path d="M26 37H75C81.0751 37 86 41.9249 86 48V48C86 54.0751 81.0751 59 75 59H26V37Z" fill="#C4C4C4"/>
<path d="M26 108H75C81.0751 108 86 112.925 86 119V119C86 125.075 81.0751 130 75 130H26V108Z" fill="#C4C4C4"/>
<path d="M26 84H83C89.6274 84 95 89.3726 95 96V96C95 102.627 89.6274 108 83 108H26V84Z" fill="#C4C4C4"/>
<path d="M26 59H88.5C95.4036 59 101 64.5964 101 71.5V71.5C101 78.4036 95.4036 84 88.5 84H26V59Z" fill="#C4C4C4"/>
<path d="M0 67C0 50.4315 13.4315 37 30 37V37V130V130C13.4315 130 0 116.569 0 100V67Z" fill="#C4C4C4"/>
<path d="M0 15C0 6.71573 6.71573 0 15 0V0C23.2843 0 30 6.71573 30 15V65H0V15Z" fill="#C4C4C4"/>
</svg>
